<?xml version="1.0" encoding="utf-8"?>
<!-- Generator: Adobe Illustrator 18.1.1, SVG Export Plug-In . SVG Version: 6.00 Build 0)  -->
<svg version="1.1" id="Layer_1" xmlns="http://www.w3.org/2000/svg" xmlns:xlink="http://www.w3.org/1999/xlink" x="0px" y="0px"
	 viewBox="1806 -20 494 876" enable-background="new 1806 -20 494 876" xml:space="preserve">
<text transform="matrix(1 0 0 1 644.9995 620.2996)" font-family="'Arial-BoldMT'" font-size="30.6">Created by Arthur Shlain</text>
<text transform="matrix(1 0 0 1 644.9995 650.8979)" font-family="'Arial-BoldMT'" font-size="30.6">from the Noun Project</text>
<text transform="matrix(1 0 0 1 -401.9995 750.3755)" font-family="'Arial-BoldMT'" font-size="95.625">Created by Guilherme Simoes</text>
<text transform="matrix(1 0 0 1 -401.9995 846.0005)" font-family="'Arial-BoldMT'" font-size="95.625">from the Noun Project</text>
<g>
	<path d="M1926.1,548.8c-10.5,0-18.9-8.5-18.9-18.9V227c0-10.5,8.5-18.9,18.9-18.9h18.9V227h189.3v-18.9h18.9
		c10.5,0,18.9,8.5,18.9,18.9v162.5c6.2-1,12.5-1.6,18.9-1.6s12.8,0.6,18.9,1.6V189.1c0-10.5-8.5-18.9-18.9-18.9h-113.6v-37.9h-75.7
		v37.9h-113.6c-10.5,0-18.9,8.5-18.9,18.9v378.6c0,10.5,8.5,18.9,18.9,18.9h206.1c-8.8-11.2-15.7-24-20.2-37.9H1926.1z"/>
	<polygon points="2238,450.7 2171,517.7 2144.3,490.9 2117.5,517.7 2171,571.2 2264.7,477.5 	"/>
</g>
</svg>
