<?xml version="1.0" encoding="utf-8"?>
<!-- Generator: Adobe Illustrator 18.1.1, SVG Export Plug-In . SVG Version: 6.00 Build 0)  -->
<svg version="1.1" id="Layer_1" xmlns="http://www.w3.org/2000/svg" xmlns:xlink="http://www.w3.org/1999/xlink" x="0px" y="0px"
	 viewBox="0 0 612 792" enable-background="new 0 0 612 792" xml:space="preserve">
<g>
	<g>
		<path fill="none" d="M239.8,490c-41.6-4.2-80.7-12.6-111.4-24.8l102.7,129.5c8.4-7.5,17.9-13.7,28.3-18.4L239.8,490z"/>
		<path fill="none" d="M211.3,320.5c0.3-0.1,0.5,0,0.8,0c29.8-4.5,61.6-6.9,92.9-6.9c29.4,0,59.3,2.1,87.6,6
			c1.3-0.3,2.8-0.4,4.2-0.1c1,0.2,1.8,0.7,2.6,1.2c1,0.2,2,0.3,3,0.5c-5.6-94.9-79.9-139.3-96.8-148.1c-16.9,8.9-91.2,53.2-96.8,148
			c0.7-0.1,1.4-0.2,2.1-0.3C211,320.6,211.1,320.5,211.3,320.5z"/>
		<path fill="none" d="M482.1,465c-31.3,12.5-71.6,21-114.2,25.2L348.7,575c11.4,4.7,21.8,11.3,30.9,19.3L482.1,465z"/>
		<path fill="none" d="M330.4,569.2l17.5-77.3c-5.8,0.4-11.6,0.7-17.3,0.9c-0.4,0-0.8,0-1.2,0.1c-8.1,0.3-16.3,0.5-24.4,0.5
			s-16.3-0.2-24.4-0.5c-0.4,0-0.8,0-1.2-0.1c-6.5-0.3-13.1-0.6-19.6-1.1l17.7,78.2c9-2.3,18.3-3.5,28-3.5
			C314.1,566.4,322.4,567.3,330.4,569.2z"/>
		<path fill="none" d="M401.9,340.4l-29.4,129.8c87.8-10.7,145.2-41.3,151.7-71.6C518.4,375.8,472.4,352.2,401.9,340.4z"/>
		<path fill="none" d="M305,332.7c-28.9,0-55.6,1.9-80,5.2L255.4,472c15.8,1.4,32.3,2.1,49.6,2.1c16.5,0,32.3-0.7,47.4-1.9
			l30.5-134.6C359.1,334.5,333,332.7,305,332.7z"/>
		<path fill="none" d="M199.7,341.8c-15.4,2.8-29.6,6.3-42.4,10.2c-1.4,0.4-2.7,0.8-4,1.3c-4.8,1.5-9.4,3.2-13.8,4.8
			c-1.4,0.5-2.9,1.1-4.3,1.6c-5,2-9.7,4.1-14,6.2c-0.9,0.4-1.7,0.9-2.5,1.3c-3.7,1.9-7,3.8-10.1,5.8c-1.5,0.9-2.8,1.9-4.2,2.9
			c-2.1,1.5-4.1,3-5.8,4.6c-1.1,1-2.2,1.9-3.2,2.9c-2.4,2.4-4.5,4.7-6,7.1c-0.2,0.3-0.3,0.6-0.5,0.9c-1.4,2.3-2.4,4.7-3,7.1v0
			c6.5,30,62.9,60.4,149.5,71.3L206,340.8C203.9,341.1,201.8,341.5,199.7,341.8z"/>
		<path fill="#010101" d="M138.2,149.9c5.3,0,9.6-4.3,9.6-9.6v-14c0-5.3-4.3-9.6-9.6-9.6s-9.6,4.3-9.6,9.6v14
			C128.6,145.6,132.9,149.9,138.2,149.9z"/>
		<path fill="#010101" d="M417.9,147c5.3,0,9.6-4.3,9.6-9.6v-9.3c0-5.3-4.3-9.6-9.6-9.6s-9.6,4.3-9.6,9.6v9.3
			C408.3,142.8,412.6,147,417.9,147z"/>
		<path fill="#010101" d="M545.2,392.8c0-27.8-12.5-79.4-42.4-127.7V164.6c0-5.3-4.3-9.6-9.6-9.6c-5.3,0-9.6,4.3-9.6,9.6v73.1
			c0,0-0.1-0.1-0.1-0.1v33.4c0,5.3-4.3,9.6-9.6,9.6s-9.6-4.3-9.6-9.6v-54.6c-11-10.8-23.3-20.5-37-29.1v-22c0-5.3-4.3-9.6-9.6-9.6
			c-5.3,0-9.6,4.3-9.6,9.6v11.1c0,0,0,0-0.1-0.1v13.3c0,5.3-4.3,9.6-9.6,9.6c-5.3,0-9.6-4.3-9.6-9.6v-21.8
			c-24.3-9.2-51.7-14.9-83-14.9c-0.1,0-0.2,0.1-0.3,0.1c-0.3,0-0.5-0.1-0.8-0.1c-69.3,0-120.3,26.6-157.3,62.6v-45.3
			c0-5.3-4.3-9.6-9.6-9.6s-9.6,4.3-9.6,9.6v65.9c0,0,0,0-0.1,0.1v60c0,5.3-4.3,9.6-9.6,9.6s-9.6-4.3-9.6-9.6v-33.4
			c-30.9,48.9-43.5,101.7-43.5,130c0,1.6,0,8.9,0,10.6c0,12.3,5.7,23.3,15.4,33.1l136.5,172.2c4-5.1,8.5-9.7,13.3-14L128.4,465.2
			c30.7,12.2,69.9,20.5,111.4,24.8l19.6,86.3c5.8-2.6,11.9-4.8,18.1-6.4l-17.7-78.2c6.5,0.5,13,0.8,19.6,1.1c0.4,0,0.8,0,1.2,0.1
			c8.1,0.3,16.3,0.5,24.4,0.5s16.3-0.2,24.4-0.5c0.4,0,0.8,0,1.2-0.1c5.8-0.2,11.6-0.5,17.3-0.9l-17.5,77.3
			c6.3,1.4,12.4,3.4,18.3,5.8l19.2-84.8c42.6-4.2,82.9-12.7,114.2-25.2L379.5,594.3c4.8,4.3,9.3,8.9,13.3,14L530.3,435
			c1.8-1.9,3.3-3.9,4.7-5.9l2.4-3c0.3-0.4,0.4-0.9,0.7-1.3c0.4-0.7,0.7-1.3,1-2c0,0,0-0.1,0-0.1
			C546.6,411.7,545.2,394.5,545.2,392.8z M305.5,173c16.9,8.8,91.2,53.2,96.8,148.1c-1-0.2-2-0.3-3-0.5c-0.8-0.5-1.6-0.9-2.6-1.2
			c-1.5-0.3-2.9-0.2-4.2,0.1c-28.2-4-58.1-6-87.6-6c-31.3,0-63.1,2.4-92.9,6.9c-0.3,0-0.5,0-0.8,0c-0.1,0-0.2,0.1-0.4,0.2
			c-0.7,0.1-1.4,0.2-2.1,0.3C214.4,226.2,288.6,181.9,305.5,173z M85.8,398.6L85.8,398.6c0.6-2.4,1.6-4.8,3-7.1
			c0.2-0.3,0.3-0.6,0.5-0.9c1.5-2.4,3.7-4.7,6-7.1c1-1,2.1-1.9,3.2-2.9c1.8-1.5,3.7-3.1,5.8-4.6c1.3-1,2.7-1.9,4.2-2.9
			c3.1-2,6.5-3.9,10.1-5.8c0.8-0.4,1.6-0.9,2.5-1.3c4.3-2.1,9-4.2,14-6.2c1.4-0.6,2.8-1.1,4.3-1.6c4.4-1.7,9-3.3,13.8-4.8
			c1.3-0.4,2.6-0.9,4-1.3c12.9-3.9,27.1-7.4,42.4-10.2c2-0.4,4.2-0.7,6.3-1.1l29.3,129.2C148.7,459,92.3,428.7,85.8,398.6z
			 M352.4,472.2c-15.1,1.2-30.9,1.9-47.4,1.9c-17.3,0-33.9-0.8-49.6-2.1L225,337.9c24.4-3.2,51.2-5.2,80-5.2c28,0,54.1,1.8,77.9,4.9
			L352.4,472.2z M372.5,470.2l29.4-129.8c70.5,11.8,116.5,35.4,122.3,58.2C517.6,428.9,460.3,459.5,372.5,470.2z"/>
	</g>
	<g>
		<path fill="#010101" d="M235.3,674.9l5.9-38.7l28.2-35.3l23.6,0.2l-23.5,31.5l19.8,0.2l-6.3,42.5L235.3,674.9z M296.6,675.5
			l5.9-38.7l28-35.3l23.8,0.2l-23.5,31.5l19.6,0.2l-6.3,42.5L296.6,675.5z"/>
	</g>
</g>
</svg>
